<svg xmlns="http://www.w3.org/2000/svg" xmlns:xlink="http://www.w3.org/1999/xlink" width="269.319" height="339.429" viewBox="0 0 269.319 339.429">
  <defs>
    <clipPath id="clip-path">
      <rect width="269.319" height="163.486" fill="none"/>
    </clipPath>
    <clipPath id="clip-path-2">
      <rect width="269.319" height="161.486" fill="none"/>
    </clipPath>
  </defs>
  <g id="cups" transform="translate(-52.841 -235.571)">
    <g id="tab_icon_home" transform="translate(52.841 235.571)" clip-path="url(#clip-path)">
      <g id="tab_icon_home-2" data-name="tab_icon_home" transform="translate(36.239 -619.397)">
        <path id="Path_86" data-name="Path 86" d="M4.013,0h12.2L20.6,20.807H0Z" transform="translate(-13.317 646.13) rotate(180)" fill="#6c9595"/>
        <path id="Path_87" data-name="Path 87" d="M0,0H25.161L23.883,4.052H1.181Z" transform="translate(-11.078 623.45) rotate(180)" fill="#6c9595"/>
      </g>
      <g id="tab_icon_home-3" data-name="tab_icon_home" transform="translate(96.239 -619.397)">
        <path id="Path_86-2" data-name="Path 86" d="M4.013,0h12.2L20.6,20.807H0Z" transform="translate(-13.317 646.13) rotate(180)" fill="#6c9595"/>
        <path id="Path_87-2" data-name="Path 87" d="M0,0H25.161L23.883,4.052H1.181Z" transform="translate(-11.078 623.45) rotate(180)" fill="#6c9595"/>
      </g>
      <g id="tab_icon_home-4" data-name="tab_icon_home" transform="translate(156.239 -619.397)">
        <path id="Path_86-3" data-name="Path 86" d="M4.013,0h12.2L20.6,20.807H0Z" transform="translate(-13.317 646.13) rotate(180)" fill="#6c9595"/>
        <path id="Path_87-3" data-name="Path 87" d="M0,0H25.161L23.883,4.052H1.181Z" transform="translate(-11.078 623.45) rotate(180)" fill="#6c9595"/>
      </g>
      <g id="tab_icon_home-5" data-name="tab_icon_home" transform="translate(216.239 -619.397)">
        <path id="Path_86-4" data-name="Path 86" d="M4.013,0h12.2L20.6,20.807H0Z" transform="translate(-13.317 646.13) rotate(180)" fill="#6c9595"/>
        <path id="Path_87-4" data-name="Path 87" d="M0,0H25.161L23.883,4.052H1.181Z" transform="translate(-11.078 623.45) rotate(180)" fill="#6c9595"/>
      </g>
      <g id="tab_icon_home-6" data-name="tab_icon_home" transform="translate(276.239 -619.397)">
        <path id="Path_86-5" data-name="Path 86" d="M4.013,0h12.2L20.6,20.807H0Z" transform="translate(-13.317 646.13) rotate(180)" fill="#6c9595"/>
        <path id="Path_87-5" data-name="Path 87" d="M0,0H25.161L23.883,4.052H1.181Z" transform="translate(-11.078 623.45) rotate(180)" fill="#6c9595"/>
      </g>
      <g id="tab_icon_home-7" data-name="tab_icon_home" transform="translate(36.239 -559.397)">
        <path id="Path_86-6" data-name="Path 86" d="M4.013,0h12.2L20.6,20.807H0Z" transform="translate(-13.317 646.13) rotate(180)" fill="#6c9595"/>
        <path id="Path_87-6" data-name="Path 87" d="M0,0H25.161L23.883,4.052H1.181Z" transform="translate(-11.078 623.45) rotate(180)" fill="#6c9595"/>
      </g>
      <g id="tab_icon_home-8" data-name="tab_icon_home" transform="translate(96.239 -559.397)">
        <path id="Path_86-7" data-name="Path 86" d="M4.013,0h12.2L20.6,20.807H0Z" transform="translate(-13.317 646.13) rotate(180)" fill="#6c9595"/>
        <path id="Path_87-7" data-name="Path 87" d="M0,0H25.161L23.883,4.052H1.181Z" transform="translate(-11.078 623.45) rotate(180)" fill="#6c9595"/>
      </g>
      <g id="tab_icon_home-9" data-name="tab_icon_home" transform="translate(156.239 -559.397)">
        <path id="Path_86-8" data-name="Path 86" d="M4.013,0h12.2L20.6,20.807H0Z" transform="translate(-13.317 646.13) rotate(180)" fill="#6c9595"/>
        <path id="Path_87-8" data-name="Path 87" d="M0,0H25.161L23.883,4.052H1.181Z" transform="translate(-11.078 623.45) rotate(180)" fill="#6c9595"/>
      </g>
      <g id="tab_icon_home-10" data-name="tab_icon_home" transform="translate(216.239 -559.397)">
        <path id="Path_86-9" data-name="Path 86" d="M4.013,0h12.2L20.6,20.807H0Z" transform="translate(-13.317 646.13) rotate(180)" fill="#6c9595"/>
        <path id="Path_87-9" data-name="Path 87" d="M0,0H25.161L23.883,4.052H1.181Z" transform="translate(-11.078 623.45) rotate(180)" fill="#6c9595"/>
      </g>
      <g id="tab_icon_home-11" data-name="tab_icon_home" transform="translate(276.239 -559.397)">
        <path id="Path_86-10" data-name="Path 86" d="M4.013,0h12.2L20.6,20.807H0Z" transform="translate(-13.317 646.13) rotate(180)" fill="#6c9595"/>
        <path id="Path_87-10" data-name="Path 87" d="M0,0H25.161L23.883,4.052H1.181Z" transform="translate(-11.078 623.45) rotate(180)" fill="#6c9595"/>
      </g>
      <g id="tab_icon_home-12" data-name="tab_icon_home" transform="translate(36.239 -499.397)">
        <path id="Path_86-11" data-name="Path 86" d="M4.013,0h12.2L20.6,20.807H0Z" transform="translate(-13.317 646.13) rotate(180)" fill="#6c9595"/>
        <path id="Path_87-11" data-name="Path 87" d="M0,0H25.161L23.883,4.052H1.181Z" transform="translate(-11.078 623.45) rotate(180)" fill="#6c9595"/>
      </g>
      <g id="tab_icon_home-13" data-name="tab_icon_home" transform="translate(96.239 -499.397)">
        <path id="Path_86-12" data-name="Path 86" d="M4.013,0h12.2L20.6,20.807H0Z" transform="translate(-13.317 646.13) rotate(180)" fill="#6c9595"/>
        <path id="Path_87-12" data-name="Path 87" d="M0,0H25.161L23.883,4.052H1.181Z" transform="translate(-11.078 623.45) rotate(180)" fill="#6c9595"/>
      </g>
      <g id="tab_icon_home-14" data-name="tab_icon_home" transform="translate(156.239 -499.397)">
        <path id="Path_86-13" data-name="Path 86" d="M4.013,0h12.2L20.6,20.807H0Z" transform="translate(-13.317 646.13) rotate(180)" fill="#6c9595"/>
        <path id="Path_87-13" data-name="Path 87" d="M0,0H25.161L23.883,4.052H1.181Z" transform="translate(-11.078 623.45) rotate(180)" fill="#6c9595"/>
      </g>
      <g id="tab_icon_home-15" data-name="tab_icon_home" transform="translate(216.239 -499.397)">
        <path id="Path_86-14" data-name="Path 86" d="M4.013,0h12.2L20.6,20.807H0Z" transform="translate(-13.317 646.13) rotate(180)" fill="#6c9595"/>
        <path id="Path_87-14" data-name="Path 87" d="M0,0H25.161L23.883,4.052H1.181Z" transform="translate(-11.078 623.45) rotate(180)" fill="#6c9595"/>
      </g>
      <g id="tab_icon_home-16" data-name="tab_icon_home" transform="translate(276.239 -499.397)">
        <path id="Path_86-15" data-name="Path 86" d="M4.013,0h12.2L20.6,20.807H0Z" transform="translate(-13.317 646.13) rotate(180)" fill="#6c9595"/>
        <path id="Path_87-15" data-name="Path 87" d="M0,0H25.161L23.883,4.052H1.181Z" transform="translate(-11.078 623.45) rotate(180)" fill="#6c9595"/>
      </g>
    </g>
    <g id="tab_icon_home-17" data-name="tab_icon_home" transform="translate(52.841 413.514)" opacity="0.25" clip-path="url(#clip-path-2)">
      <g id="tab_icon_home-18" data-name="tab_icon_home" transform="translate(36.239 -619.397)">
        <path id="Path_86-16" data-name="Path 86" d="M4.013,0h12.2L20.6,20.807H0Z" transform="translate(-13.317 646.13) rotate(180)" fill="#6c9595"/>
        <path id="Path_87-16" data-name="Path 87" d="M0,0H25.161L23.883,4.052H1.181Z" transform="translate(-11.078 623.45) rotate(180)" fill="#6c9595"/>
      </g>
      <g id="tab_icon_home-19" data-name="tab_icon_home" transform="translate(96.239 -619.397)">
        <path id="Path_86-17" data-name="Path 86" d="M4.013,0h12.2L20.6,20.807H0Z" transform="translate(-13.317 646.13) rotate(180)" fill="#6c9595"/>
        <path id="Path_87-17" data-name="Path 87" d="M0,0H25.161L23.883,4.052H1.181Z" transform="translate(-11.078 623.45) rotate(180)" fill="#6c9595"/>
      </g>
      <g id="tab_icon_home-20" data-name="tab_icon_home" transform="translate(156.239 -619.397)">
        <path id="Path_86-18" data-name="Path 86" d="M4.013,0h12.2L20.6,20.807H0Z" transform="translate(-13.317 646.13) rotate(180)" fill="#6c9595"/>
        <path id="Path_87-18" data-name="Path 87" d="M0,0H25.161L23.883,4.052H1.181Z" transform="translate(-11.078 623.45) rotate(180)" fill="#6c9595"/>
      </g>
      <g id="tab_icon_home-21" data-name="tab_icon_home" transform="translate(216.239 -619.397)">
        <path id="Path_86-19" data-name="Path 86" d="M4.013,0h12.2L20.6,20.807H0Z" transform="translate(-13.317 646.13) rotate(180)" fill="#6c9595"/>
        <path id="Path_87-19" data-name="Path 87" d="M0,0H25.161L23.883,4.052H1.181Z" transform="translate(-11.078 623.45) rotate(180)" fill="#6c9595"/>
      </g>
      <g id="tab_icon_home-22" data-name="tab_icon_home" transform="translate(276.239 -619.397)">
        <path id="Path_86-20" data-name="Path 86" d="M4.013,0h12.2L20.6,20.807H0Z" transform="translate(-13.317 646.13) rotate(180)" fill="#6c9595"/>
        <path id="Path_87-20" data-name="Path 87" d="M0,0H25.161L23.883,4.052H1.181Z" transform="translate(-11.078 623.45) rotate(180)" fill="#6c9595"/>
      </g>
      <g id="tab_icon_home-23" data-name="tab_icon_home" transform="translate(36.239 -559.397)">
        <path id="Path_86-21" data-name="Path 86" d="M4.013,0h12.2L20.6,20.807H0Z" transform="translate(-13.317 646.13) rotate(180)" fill="#6c9595"/>
        <path id="Path_87-21" data-name="Path 87" d="M0,0H25.161L23.883,4.052H1.181Z" transform="translate(-11.078 623.45) rotate(180)" fill="#6c9595"/>
      </g>
      <g id="tab_icon_home-24" data-name="tab_icon_home" transform="translate(96.239 -559.397)">
        <path id="Path_86-22" data-name="Path 86" d="M4.013,0h12.2L20.6,20.807H0Z" transform="translate(-13.317 646.13) rotate(180)" fill="#6c9595"/>
        <path id="Path_87-22" data-name="Path 87" d="M0,0H25.161L23.883,4.052H1.181Z" transform="translate(-11.078 623.45) rotate(180)" fill="#6c9595"/>
      </g>
      <g id="tab_icon_home-25" data-name="tab_icon_home" transform="translate(156.239 -559.397)">
        <path id="Path_86-23" data-name="Path 86" d="M4.013,0h12.2L20.6,20.807H0Z" transform="translate(-13.317 646.13) rotate(180)" fill="#6c9595"/>
        <path id="Path_87-23" data-name="Path 87" d="M0,0H25.161L23.883,4.052H1.181Z" transform="translate(-11.078 623.45) rotate(180)" fill="#6c9595"/>
      </g>
      <g id="tab_icon_home-26" data-name="tab_icon_home" transform="translate(216.239 -559.397)">
        <path id="Path_86-24" data-name="Path 86" d="M4.013,0h12.2L20.6,20.807H0Z" transform="translate(-13.317 646.13) rotate(180)" fill="#6c9595"/>
        <path id="Path_87-24" data-name="Path 87" d="M0,0H25.161L23.883,4.052H1.181Z" transform="translate(-11.078 623.45) rotate(180)" fill="#6c9595"/>
      </g>
      <g id="tab_icon_home-27" data-name="tab_icon_home" transform="translate(276.239 -559.397)">
        <path id="Path_86-25" data-name="Path 86" d="M4.013,0h12.2L20.6,20.807H0Z" transform="translate(-13.317 646.13) rotate(180)" fill="#6c9595"/>
        <path id="Path_87-25" data-name="Path 87" d="M0,0H25.161L23.883,4.052H1.181Z" transform="translate(-11.078 623.45) rotate(180)" fill="#6c9595"/>
      </g>
      <g id="tab_icon_home-28" data-name="tab_icon_home" transform="translate(36.239 -499.397)">
        <path id="Path_86-26" data-name="Path 86" d="M4.013,0h12.2L20.6,20.807H0Z" transform="translate(-13.317 646.13) rotate(180)" fill="#6c9595"/>
        <path id="Path_87-26" data-name="Path 87" d="M0,0H25.161L23.883,4.052H1.181Z" transform="translate(-11.078 623.45) rotate(180)" fill="#6c9595"/>
      </g>
      <g id="tab_icon_home-29" data-name="tab_icon_home" transform="translate(96.239 -499.397)">
        <path id="Path_86-27" data-name="Path 86" d="M4.013,0h12.2L20.6,20.807H0Z" transform="translate(-13.317 646.13) rotate(180)" fill="#6c9595"/>
        <path id="Path_87-27" data-name="Path 87" d="M0,0H25.161L23.883,4.052H1.181Z" transform="translate(-11.078 623.45) rotate(180)" fill="#6c9595"/>
      </g>
      <g id="tab_icon_home-30" data-name="tab_icon_home" transform="translate(156.239 -499.397)">
        <path id="Path_86-28" data-name="Path 86" d="M4.013,0h12.2L20.6,20.807H0Z" transform="translate(-13.317 646.13) rotate(180)" fill="#6c9595"/>
        <path id="Path_87-28" data-name="Path 87" d="M0,0H25.161L23.883,4.052H1.181Z" transform="translate(-11.078 623.45) rotate(180)" fill="#6c9595"/>
      </g>
      <g id="tab_icon_home-31" data-name="tab_icon_home" transform="translate(216.239 -499.397)">
        <path id="Path_86-29" data-name="Path 86" d="M4.013,0h12.2L20.6,20.807H0Z" transform="translate(-13.317 646.13) rotate(180)" fill="#6c9595"/>
        <path id="Path_87-29" data-name="Path 87" d="M0,0H25.161L23.883,4.052H1.181Z" transform="translate(-11.078 623.45) rotate(180)" fill="#6c9595"/>
      </g>
      <g id="tab_icon_home-32" data-name="tab_icon_home" transform="translate(276.239 -499.397)">
        <path id="Path_86-30" data-name="Path 86" d="M4.013,0h12.2L20.6,20.807H0Z" transform="translate(-13.317 646.13) rotate(180)" fill="#6c9595"/>
        <path id="Path_87-30" data-name="Path 87" d="M0,0H25.161L23.883,4.052H1.181Z" transform="translate(-11.078 623.45) rotate(180)" fill="#6c9595"/>
      </g>
    </g>
  </g>
</svg>
