<svg xmlns="http://www.w3.org/2000/svg" width="27.226" height="36.983" viewBox="0 0 27.226 36.983">
  <g id="logo_white" transform="translate(-234.149 1464.057)">
    <g id="Path_57" transform="translate(236.571 -1464.057)">
      <path id="Path_113" data-name="Path 113" d="M253.343-1456.6h13.195l4.748,18.057H249Z" transform="translate(-249 1456.6)" fill="#fff"/>
    </g>
    <g id="Path_54" transform="translate(234.149 -1444.377)">
      <path id="Path_114" data-name="Path 114" d="M244.76-1422.16h27.226l-1.383,3.517H246.039Z" transform="translate(-244.76 1422.16)" fill="#fff"/>
    </g>
    <g id="Ellipse_43" transform="translate(236.571 -1439.143)">
      <g id="Group_76" data-name="Group 76" transform="translate(0.054 0.143)">
        <ellipse id="Ellipse_48" data-name="Ellipse 48" cx="4.5" cy="5" rx="4.5" ry="5" transform="translate(0.375 0)" fill="none"/>
      </g>
      <g id="Group_77" data-name="Group 77">
        <path id="Path_115" data-name="Path 115" d="M4.857,9.714A4.857,4.857,0,1,1,9.714,4.857,4.863,4.863,0,0,1,4.857,9.714Zm0-8.571A3.714,3.714,0,1,0,8.571,4.857,3.719,3.719,0,0,0,4.857,1.143Z" fill="#fff"/>
      </g>
    </g>
    <g id="Ellipse_42" transform="translate(248.875 -1439.143)">
      <g id="Group_78" data-name="Group 78" transform="translate(0 0.143)">
        <circle id="Ellipse_49" data-name="Ellipse 49" cx="5" cy="5" r="5" transform="translate(0.125 0)" fill="none"/>
      </g>
      <g id="Group_79" data-name="Group 79" transform="translate(0.268)">
        <path id="Path_116" data-name="Path 116" d="M4.857,9.714A4.857,4.857,0,1,1,9.714,4.857,4.863,4.863,0,0,1,4.857,9.714Zm0-8.571A3.714,3.714,0,1,0,8.571,4.857,3.719,3.719,0,0,0,4.857,1.143Z" fill="#fff"/>
      </g>
    </g>
    <g id="Path_56" transform="translate(245.429 -1434.286)">
      <path id="Path_117" data-name="Path 117" d="M264.5-1404.5" transform="translate(-264.5 1404.5)" fill="none" stroke="#70a8a6" stroke-width="2"/>
    </g>
    <g id="Path_55" transform="translate(245.13 -1436.429)">
      <path id="Path_118" data-name="Path 118" d="M269.164-1406.668h-1.143c0-.041-.094-.141-.3-.233a3.085,3.085,0,0,0-1.182-.207c-.917,0-1.417.291-1.417.44h-1.143c0-.947,1.029-1.583,2.559-1.583C267.844-1408.256,269.164-1407.765,269.164-1406.668Z" transform="translate(-263.977 1408.251)" fill="#fff"/>
    </g>
    <g id="Path_58" transform="translate(245.048 -1430.213)">
      <path id="Path_119" data-name="Path 119" d="M266.566-1394.234a4.839,4.839,0,0,1-2.481-.621.572.572,0,0,1-.153-.794.573.573,0,0,1,.794-.153,3.847,3.847,0,0,0,3.136.158,1.184,1.184,0,0,0,.651-1.157.571.571,0,0,1,.571-.571.571.571,0,0,1,.571.571,2.31,2.31,0,0,1-1.258,2.166A3.93,3.93,0,0,1,266.566-1394.234Z" transform="translate(-263.835 1397.372)" fill="#fff"/>
    </g>
  </g>
</svg>
